<svg xmlns="http://www.w3.org/2000/svg" viewBox="0 0 156 71"><path fill="#fff" d="M54.59 23.35a8 8 0 0 0-2.35-.44 2.71 2.71 0 0 0-1.47.34 1.12 1.12 0 0 0-.55 1 1.39 1.39 0 0 0 .78 1.28 12.38 12.38 0 0 0 2.41.92 20.72 20.72 0 0 1 2.69.95 4.82 4.82 0 0 1 1.81 1.43 4 4 0 0 1 .75 2.52 4.3 4.3 0 0 1-.8 2.65 4.94 4.94 0 0 1-2.21 1.67 8.49 8.49 0 0 1-3.2.57 11 11 0 0 1-3.79-.68 10.38 10.38 0 0 1-3.22-1.86l1.43-2.93a9.57 9.57 0 0 0 2.76 1.74 7.47 7.47 0 0 0 2.86.66 3.11 3.11 0 0 0 1.74-.41 1.3 1.3 0 0 0 .62-1.18 1.35 1.35 0 0 0-.42-1 3.16 3.16 0 0 0-1.06-.64c-.43-.17-1-.36-1.78-.57a19 19 0 0 1-2.67-.91A4.65 4.65 0 0 1 47.14 27a3.83 3.83 0 0 1-.75-2.47 4.22 4.22 0 0 1 .77-2.51 4.87 4.87 0 0 1 2.16-1.66 8.38 8.38 0 0 1 3.22-.58 11.07 11.07 0 0 1 3.22.48 10.81 10.81 0 0 1 2.81 1.27l-1.38 3a12.24 12.24 0 0 0-2.6-1.18zM61.18 20h12.1v3h-8.51v3.48h7.65v3h-7.65V33h8.29v3H61.18zM92 24l3-4h9.1v3h-8.5v3.48h7.65v3H95.6V33h8.76v3H92zM116.94 36l-2.52-4.57h-3.66V36h-3.58V20h6.9a7.2 7.2 0 0 1 4.81 1.45 5.13 5.13 0 0 1 1.7 4.11 6.19 6.19 0 0 1-.76 3.16 4.94 4.94 0 0 1-2.21 2L121 36zm-6.18-7.59h3.32a3.45 3.45 0 0 0 2.3-.69 2.57 2.57 0 0 0 .81-2 2.46 2.46 0 0 0-.81-2 3.51 3.51 0 0 0-2.3-.68h-3.32zM134.59 20H138v16h-3.26L127 25.71V36h-3.42V20h3.26l7.72 10.33zM58.48 40.15a3.35 3.35 0 0 1 1.52 2.9 3.46 3.46 0 0 1-.73 2.21 3.75 3.75 0 0 1-2 1.29 4 4 0 0 1 2.43 1.37 4 4 0 0 1 .88 2.64A3.81 3.81 0 0 1 59 53.79 7.3 7.3 0 0 1 54.58 55H47V39.08h7.31a7.12 7.12 0 0 1 4.17 1.07zM55.75 45a1.59 1.59 0 0 0 .58-1.3 1.54 1.54 0 0 0-.58-1.27 2.44 2.44 0 0 0-1.6-.43h-3.54v3.47h3.54a2.5 2.5 0 0 0 1.6-.47zm.4 6.52a1.65 1.65 0 0 0 .72-1.42 1.56 1.56 0 0 0-.72-1.36 3.45 3.45 0 0 0-2-.48h-3.54V52h3.54a3.44 3.44 0 0 0 2-.47zM72.94 55l-2.52-4.53h-3.65V55h-3.59V39.08h6.9a7.25 7.25 0 0 1 4.81 1.44 5.06 5.06 0 0 1 1.7 4.07 6.12 6.12 0 0 1-.76 3.15 4.85 4.85 0 0 1-2.21 2L77 55zm-6.17-7.53h3.31a3.43 3.43 0 0 0 2.3-.69 2.52 2.52 0 0 0 .81-2 2.44 2.44 0 0 0-.81-2 3.54 3.54 0 0 0-2.3-.67h-3.31zM91.34 39.9a8.12 8.12 0 0 1 0 14.24 9.32 9.32 0 0 1-8.67 0 8.13 8.13 0 0 1-3.07-3A8 8 0 0 1 78.47 47a7.89 7.89 0 0 1 1.13-4.16 8 8 0 0 1 3.06-2.94 9.34 9.34 0 0 1 8.68 0zm-6.74 2.73a5 5 0 0 0-1.79 1.83 5 5 0 0 0-.66 2.54 5.11 5.11 0 0 0 2.46 4.4 4.71 4.71 0 0 0 4.86 0 5 5 0 0 0 1.75-1.83 5.25 5.25 0 0 0 .64-2.57 5.13 5.13 0 0 0-.64-2.54 5 5 0 0 0-1.75-1.83 4.64 4.64 0 0 0-2.42-.63 4.8 4.8 0 0 0-2.45.63zM108.88 39.08h3.41V55H109l-7.69-10.21V55H97.9V39.08h3.27l7.71 10.26zM115.78 39.08h3.59V55h-3.59zM122.88 39.08H135v3h-8.51v3.42h7.64v3h-7.64V52h8.76v3h-12.37zM145.9 42.31a7.94 7.94 0 0 0-2.34-.44 2.82 2.82 0 0 0-1.48.34 1.11 1.11 0 0 0-.54 1 1.39 1.39 0 0 0 .78 1.28 12 12 0 0 0 2.41.92 22.33 22.33 0 0 1 2.69 1 4.82 4.82 0 0 1 1.81 1.43 4 4 0 0 1 .75 2.52 4.28 4.28 0 0 1-.81 2.62A4.94 4.94 0 0 1 147 54.6a8.49 8.49 0 0 1-3.2.57 11 11 0 0 1-3.79-.68 10.38 10.38 0 0 1-3.22-1.86l1.43-2.93a9.52 9.52 0 0 0 2.78 1.75 7.39 7.39 0 0 0 2.85.66 3.17 3.17 0 0 0 1.74-.41 1.43 1.43 0 0 0 .2-2.19 3.17 3.17 0 0 0-1.06-.65c-.43-.17-1-.36-1.78-.57a20.53 20.53 0 0 1-2.67-.9 4.77 4.77 0 0 1-1.83-1.39 3.81 3.81 0 0 1-.75-2.47 4.24 4.24 0 0 1 .77-2.51 4.93 4.93 0 0 1 2.16-1.66 8.38 8.38 0 0 1 3.22-.57 11.44 11.44 0 0 1 6 1.74l-1.39 3a12.51 12.51 0 0 0-2.56-1.22zM75.5 20H79v12l9-12h4.5l-12 16h-5V20z"/><path fill="none" stroke="#fff" stroke-width="3.5" d="M7.91 21.7h28.57l-29 39.77v-51l12.4 11.62-12.36 17"/></svg>