<?xml version="1.0" encoding="utf-8"?>
<!-- Generator: Adobe Illustrator 19.1.0, SVG Export Plug-In . SVG Version: 6.00 Build 0)  -->
<svg version="1.1" xmlns="http://www.w3.org/2000/svg" xmlns:xlink="http://www.w3.org/1999/xlink" x="0px" y="0px"
	 viewBox="0 0 5850 3086" enable-background="new 0 0 5850 3086" xml:space="preserve">
<g id="Layer_4" display="none">
	<rect x="-83" y="-137" display="inline" stroke="#000000" stroke-miterlimit="10" width="6016" height="3336"/>
</g>
<g id="Shape_2_1_" opacity="0.6" enable-background="new    ">
	<g id="Shape_2">
		<g>
			<polygon fill-rule="evenodd" clip-rule="evenodd" fill="#FFFFFF" points="300,765 300,2330 1447,765 			"/>
		</g>
	</g>
</g>
<g id="Shape_3_1_" opacity="0.4" enable-background="new    ">
	<g id="Shape_3">
		<g>
			<polygon fill-rule="evenodd" clip-rule="evenodd" fill="#FFFFFF" points="300,309 300,1488.1 830,765 			"/>
		</g>
	</g>
</g>
<g id="severn_x0D_bronies" opacity="0.9608">
	<g>
		<path fill="#FFFFFF" d="M2121.4,1160.9c0,53.9-19.5,97-58.5,129.3c-39,32.3-89,48.4-150,48.4c-41.1,0-83.9-7.5-128.2-22.3
			c-44.3-14.9-83.5-35.8-117.6-62.8l57.5-92.6c66,49.7,129.8,74.5,191.5,74.5c26.9,0,48.2-6.2,63.8-18.6s23.4-28.2,23.4-47.3
			c0-28.4-37.6-53.9-112.8-76.6c-5.7-2.1-9.9-3.5-12.8-4.3c-117.8-31.9-176.6-85.1-176.6-159.6c0-52.5,20.4-94.5,61.2-126.1
			s93.8-47.4,159.1-47.4c65.2,0,127,19.2,185.1,57.5l-44.7,88.3c-46.1-30.5-96.1-45.8-150-45.8c-28.4,0-51.4,5.2-69.2,15.4
			c-17.7,10.3-26.6,25.7-26.6,46.3c0,18.4,9.2,31.9,27.7,40.4c12.8,6.4,30.7,12.4,53.7,18.1c23,5.7,43.4,11.4,61.2,17
			s34.9,12,51.6,19.1c16.7,7.1,34.6,17,53.7,29.8C2102.3,1067.3,2121.4,1107,2121.4,1160.9z"/>
		<path fill="#FFFFFF" d="M2783.1,1099.2h-443.7c2.8,41.2,21.6,74.3,56.4,99.5s74.5,37.8,119.2,37.8c70.9,0,124.8-22.3,161.7-67
			l68.1,74.5c-61,63.1-140.5,94.7-238.3,94.7c-79.4,0-147-26.4-202.7-79.3s-83.5-123.8-83.5-212.8c0-89,28.4-159.8,85.1-212.3
			c56.8-52.5,123.6-78.7,200.6-78.7s142.4,23.2,196.3,69.7s80.9,110.5,80.9,192V1099.2z M2339.4,1005.6h324.5
			c0-47.5-14.9-84.1-44.7-109.6s-66.5-38.3-110.1-38.3s-82.8,13.3-117.6,39.9C2356.8,924.2,2339.4,960.2,2339.4,1005.6z"/>
		<path fill="#FFFFFF" d="M3057.4,1330.1l-227.7-566h123.4l172.4,427.7l172.4-427.7h123.4l-227.7,566H3057.4z"/>
		<path fill="#FFFFFF" d="M4042.4,1099.2h-443.7c2.8,41.2,21.6,74.3,56.4,99.5s74.5,37.8,119.2,37.8c70.9,0,124.8-22.3,161.7-67
			l68.1,74.5c-61,63.1-140.5,94.7-238.3,94.7c-79.4,0-147-26.4-202.7-79.3s-83.5-123.8-83.5-212.8c0-89,28.4-159.8,85.1-212.3
			c56.8-52.5,123.6-78.7,200.6-78.7s142.4,23.2,196.3,69.7s80.9,110.5,80.9,192V1099.2z M3598.7,1005.6h324.5
			c0-47.5-14.9-84.1-44.7-109.6s-66.5-38.3-110.1-38.3s-82.8,13.3-117.6,39.9C3616.1,924.2,3598.7,960.2,3598.7,1005.6z"/>
		<path fill="#FFFFFF" d="M4469.9,875.8c-58.9,0-103.2,19.2-133,57.5c-29.8,38.3-44.7,89.7-44.7,154.3v242.6h-119.2v-566h119.2
			v113.8c19.1-35.5,45.2-64.5,78.2-87.2c33-22.7,67.9-34.4,104.8-35.1l1.1,120.2C4474.2,875.8,4472.1,875.8,4469.9,875.8z"/>
		<path fill="#FFFFFF" d="M4714.5,1023.7v306.4h-119.2v-566h119.2v103.2c19.1-34.8,45.6-62,79.2-81.9c33.7-19.9,70-29.8,109.1-29.8
			c63.8,0,115.4,19.5,154.8,58.5s59.1,95.4,59.1,169.2v346.9h-119.2v-310.7c0-104.3-43.3-156.4-129.8-156.4
			c-41.1,0-77,13.7-107.5,41S4714.5,971.2,4714.5,1023.7z"/>
		<path fill="#FFFFFF" d="M2021.4,1755.5c75.9,0,140.8,26.2,194.7,78.7c53.9,52.5,80.9,122.4,80.9,209.6s-26.8,158.2-80.3,212.8
			c-53.6,54.6-116,81.9-187.3,81.9c-71.3,0-135.3-31.2-192-93.6v85.1h-119.2v-789.5h119.2V1863
			C1884.2,1791.4,1945.5,1755.5,2021.4,1755.5z M1835.2,2048.2c0,53.9,16.3,98.1,48.9,132.5s72.4,51.6,119.2,51.6
			s87.6-17,122.4-51.1s52.1-78.2,52.1-132.5s-17-99.3-51.1-135.1s-74.8-53.7-122.4-53.7s-87.6,17.9-120.2,53.7
			S1835.2,1994.2,1835.2,2048.2z"/>
		<path fill="#FFFFFF" d="M2729.8,1875.8c-58.9,0-103.2,19.2-133,57.5c-29.8,38.3-44.7,89.7-44.7,154.3v242.6H2433v-566h119.2v113.8
			c19.1-35.5,45.2-64.5,78.2-87.2c33-22.7,67.9-34.4,104.8-35.1l1.1,120.2C2734.1,1875.8,2731.9,1875.8,2729.8,1875.8z"/>
		<path fill="#FFFFFF" d="M3318.1,2254c-56.8,56.4-127.7,84.6-212.8,84.6s-156-28.2-212.8-84.6c-56.8-56.4-85.1-125.4-85.1-207
			s28.4-150.6,85.1-207c56.7-56.4,127.7-84.6,212.8-84.6s156,28.2,212.8,84.6s85.1,125.4,85.1,207S3374.8,2197.7,3318.1,2254z
			 M2977,2180.6c33.7,34.4,76.4,51.6,128.2,51.6s94.5-17.2,128.2-51.6s50.5-78.9,50.5-133.5s-16.9-99.1-50.5-133.5
			s-76.4-51.6-128.2-51.6s-94.5,17.2-128.2,51.6s-50.5,78.9-50.5,133.5S2943.3,2146.2,2977,2180.6z"/>
		<path fill="#FFFFFF" d="M3657.2,2023.7v306.4h-119.2v-566h119.2v103.2c19.1-34.8,45.6-62,79.2-81.9c33.7-19.9,70-29.8,109.1-29.8
			c63.8,0,115.4,19.5,154.8,58.5s59.1,95.4,59.1,169.2v346.9h-119.2v-310.7c0-104.3-43.3-156.4-129.8-156.4
			c-41.1,0-77,13.7-107.5,41S3657.2,1971.2,3657.2,2023.7z"/>
		<path fill="#FFFFFF" d="M4232.6,1651.3c-14.9-14.9-22.3-32.6-22.3-53.2c0-20.6,7.4-38.3,22.3-53.2c14.9-14.9,32.6-22.3,53.2-22.3
			c20.6,0,38.3,7.5,53.2,22.3c14.9,14.9,22.3,32.6,22.3,53.2c0,20.6-7.5,38.3-22.3,53.2c-14.9,14.9-32.6,22.3-53.2,22.3
			C4265.3,1673.6,4247.5,1666.2,4232.6,1651.3z M4344.4,2330.1h-119.2v-566h119.2V2330.1z"/>
		<path fill="#FFFFFF" d="M5043.3,2099.2h-443.7c2.8,41.2,21.6,74.3,56.4,99.5s74.5,37.8,119.2,37.8c70.9,0,124.8-22.3,161.7-67
			l68.1,74.5c-61,63.1-140.5,94.7-238.3,94.7c-79.4,0-147-26.4-202.7-79.3s-83.5-123.8-83.5-212.8c0-89,28.4-159.8,85.1-212.3
			c56.8-52.5,123.6-78.7,200.6-78.7s142.4,23.2,196.3,69.7s80.9,110.5,80.9,192V2099.2z M4599.6,2005.6h324.5
			c0-47.5-14.9-84.1-44.7-109.6s-66.5-38.3-110.1-38.3s-82.8,13.3-117.6,39.9C4617,1924.2,4599.6,1960.2,4599.6,2005.6z"/>
		<path fill="#FFFFFF" d="M5577.2,2160.9c0,53.9-19.5,97-58.5,129.3c-39,32.3-89,48.4-150,48.4c-41.1,0-83.9-7.5-128.2-22.3
			c-44.3-14.9-83.5-35.8-117.6-62.8l57.5-92.6c66,49.7,129.8,74.5,191.5,74.5c26.9,0,48.2-6.2,63.8-18.6s23.4-28.2,23.4-47.3
			c0-28.4-37.6-53.9-112.8-76.6c-5.7-2.1-9.9-3.5-12.8-4.3c-117.8-31.9-176.6-85.1-176.6-159.6c0-52.5,20.4-94.5,61.2-126.1
			s93.8-47.4,159.1-47.4c65.2,0,127,19.2,185.1,57.5l-44.7,88.3c-46.1-30.5-96.1-45.8-150-45.8c-28.4,0-51.4,5.2-69.2,15.4
			c-17.7,10.3-26.6,25.7-26.6,46.3c0,18.4,9.2,31.9,27.7,40.4c12.8,6.4,30.7,12.4,53.7,18.1c23,5.7,43.4,11.4,61.2,17
			s34.9,12,51.6,19.1c16.7,7.1,34.6,17,53.7,29.8C5558,2067.3,5577.2,2107,5577.2,2160.9z"/>
	</g>
</g>
</svg>
