<?xml version="1.0" standalone="no"?>
<!DOCTYPE svg PUBLIC "-//W3C//DTD SVG 20010904//EN"
 "http://www.w3.org/TR/2001/REC-SVG-20010904/DTD/svg10.dtd">
<svg version="1.0" xmlns="http://www.w3.org/2000/svg"
 width="800.000000pt" height="800.000000pt" viewBox="0 0 800.000000 800.000000"
 preserveAspectRatio="xMidYMid meet">
<metadata>
Created by potrace 1.11, written by Peter Selinger 2001-2013
</metadata>
<g transform="translate(0.000000,800.000000) scale(0.100000,-0.100000)"
fill="#000000" stroke="none">
<path d="M0 4000 l0 -4000 4000 0 4000 0 0 4000 0 4000 -4000 0 -4000 0 0
-4000z m2384 155 c152 -18 334 -54 460 -90 278 -81 575 -228 774 -383 l62 -49
-301 -399 c-166 -220 -307 -407 -314 -417 -11 -16 -20 -13 -109 47 -193 128
-453 235 -696 288 -143 30 -417 33 -498 5 -95 -34 -142 -90 -142 -172 0 -135
108 -192 490 -260 558 -100 791 -163 1035 -280 261 -126 429 -281 530 -488 67
-138 86 -224 92 -407 12 -387 -102 -695 -347 -940 -219 -219 -516 -352 -930
-417 -145 -23 -635 -25 -800 -5 -500 63 -880 205 -1217 453 -117 87 -175 139
-170 153 3 8 587 847 601 863 0 1 33 -26 71 -59 163 -140 411 -281 610 -346
405 -134 855 -116 966 39 23 33 35 102 25 144 -11 42 -71 100 -139 133 -80 39
-237 80 -492 127 -668 123 -983 245 -1219 474 -179 174 -267 357 -296 623 -25
223 16 442 121 648 63 123 127 207 239 313 225 214 534 350 915 401 141 19
518 20 679 1z m4393 -58 c429 -88 724 -332 837 -696 87 -278 36 -615 -128
-846 -96 -134 -253 -247 -415 -300 l-55 -18 66 -17 c254 -66 477 -273 580
-537 87 -223 92 -520 14 -751 -129 -378 -442 -620 -880 -681 -52 -7 -498 -11
-1362 -11 l-1284 0 0 1933 c0 1064 3 1937 7 1941 4 4 577 5 1273 3 1131 -3
1274 -5 1347 -20z"/>
<path d="M5330 2914 l0 -245 478 3 c467 3 478 3 517 25 120 64 168 207 111
328 -28 60 -56 87 -116 114 -43 20 -64 21 -517 21 l-473 0 0 -246z"/>
<path d="M5330 1455 l0 -266 503 3 c500 3 502 3 552 26 94 43 143 112 152 212
10 109 -43 206 -141 258 l-51 27 -507 3 -508 3 0 -266z"/>
</g>
</svg>
